# xmcd CD database file
#
# Track frame offsets:
#	150
#	33784
#	56967
#	77419
#	98688
#	115340
#	135457
#	158047
#	176570
#	200270
#	232561
#	259292
#	277489
#	294937
#	317885
#
# Disc length: 4433 seconds
#
# Revision: 3
# Processed by: cddbd v1.5.2PL0 Copyright (c) Steve Scherf et al.
# Submitted via: CDex 1.51
#
DISCID=ca114f0f
DTITLE=Various Artist - Jazz ~ Le coffret idéal  [CD 4-4] ~ Cool Jazz 
DYEAR=2010
DGENRE=Jazz
TTITLE0=Grover Washington Jr - Winelight
TTITLE1=Yellowjackets - Priiscillia
TTITLE2=Larry Carlton - Steepwalk
TTITLE3=Lee Ritenour - No Sympathie
TTITLE4=Rick Braun - Use Me
TTITLE5=Joe Sample - Spellbound
TTITLE6=Bob James - Just One Thing
TTITLE7=David Sanborn - Run For Cover
TTITLE8=Tom Scoot - The Only One
TTITLE9=George Duke - From DuskTo Down
TTITLE10=Kevin Mahogany - Nature Boy
TTITLE11=Kirk Whalum - Playing With Fire
TTITLE12=Boney James - Sweet Thing
TTITLE13=Hiram Bullock - Say Goognight Gracie
TTITLE14=David Sanborn - Ain't No Sunshine
EXTD=YEAR: 2010
EXTT0=
EXTT1=
EXTT2=
EXTT3=
EXTT4=
EXTT5=
EXTT6=
EXTT7=
EXTT8=
EXTT9=
EXTT10=
EXTT11=
EXTT12=
EXTT13=
EXTT14=
PLAYORDER=
